<svg viewBox="0 0 1000 1000" xmlns="http://www.w3.org/2000/svg"><path d="m462.27 902.15c-241.5 0-437.27-195.77-437.27-437.27s195.77-437.27 437.27-437.27 437.26 195.77 437.26 437.27-195.77 437.27-437.26 437.27" fill="#eab642"/><path d="m501.31 941.19c-241.5 0-437.31-195.77-437.31-437.27s195.81-437.27 437.31-437.27 437.26 195.77 437.26 437.27-195.77 437.27-437.26 437.27" fill="#fff"/><path d="m537.73 972.39c-241.49 0-437.26-195.77-437.26-437.27s195.77-437.27 437.26-437.27 437.27 195.77 437.27 437.27-195.77 437.27-437.27 437.27" fill="#4747e2"/><path d="m423.78 326.7c41.5-76.11 123.67-121.52 206.47-147.18 30-9.3 62.18-16.58 92.63-8.81s58 35 56.18 66.34c-1 17.11-10.45 32.92-23 44.61s-28 19.72-43.65 26.73a458.24 458.24 0 0 1 -209.58 39.23" fill="#fff"/><path d="m438.15 343.31c41.5-76.12 123.67-121.53 206.47-147.19 30-9.3 62.18-16.58 92.63-8.81s58 35 56.18 66.34c-1 17.12-10.45 32.92-23 44.61s-28 19.74-43.64 26.74a458.19 458.19 0 0 1 -209.58 39.23" fill="#ef6348"/><path d="m427.74 329c45.69-79.66 136.4-124.95 222.7-146.25 24.82-6.13 52.14-9.68 76.75-.73 17.56 6.38 34.28 20.84 39.84 39.09 6.51 21.32-5 41.68-21 55.36-9.27 7.94-20.33 13.75-31.31 18.95q-17.46 8.26-35.61 14.9a452.16 452.16 0 0 1 -176.3 26.93c-13.32-.62-13.26 20 0 20.69a469.17 469.17 0 0 0 170-22.74c26.25-8.63 53.88-18.78 76.64-34.78 21.74-15.26 40-38.49 39.87-66.23-.07-24.31-14.9-45.46-34.17-59.08-22-15.54-49.76-19.07-76-15.85-27.12 3.33-53.46 12.13-78.89 21.87a476 476 0 0 0 -66.6 31.19c-46.86 26.85-88.44 63.81-113.83 112-2.74 5.21 5 9.77 7.91 4.63z" fill="#1a1c3f"/><path d="m501.34 954.25c114.1 0 216-48.82 282.76-125.23-1.28-19.59-4.5-39.16-8.48-58.21-16.92-81-95.27-82.18-157.58-79q-118.11 6.1-236.29 5.24c-50.6-.37-123.6-.41-147.64 60.78-8.75 22.27-13.37 46.94-15.19 71.53 66.82 76.2 168.51 124.85 282.42 124.85" fill="#fff"/><path d="m537.56 954.25c114.11 0 216-48.82 282.76-125.23-1.28-19.59-4.5-39.16-8.48-58.21-16.92-81-95.27-82.18-157.58-79q-118.11 6.19-236.26 5.28c-50.59-.37-123.6-.41-147.64 60.78-8.75 22.27-13.37 67.6-15.18 92.2 66.82 76.19 168.47 104.18 282.38 104.18" fill="#ef6348"/><path d="m501.34 963.62c96.29-.2 191.27-35.07 262.45-100.41q12.57-11.54 24-24.25c2.69-3 5.49-5.65 5.68-9.94.15-3.19-.49-6.61-.79-9.79-.78-8-1.83-16-3.07-24-3.54-22.85-7.62-46.49-20.81-66-20.86-30.89-56.24-42.91-91.86-46.4-17.35-1.7-34.84-1.47-52.23-.7-28.7 1.28-57.37 2.73-86.08 3.65-56.88 1.81-113.71 1.71-170.61 1.87-36.23.11-76.5 2.26-107.56 23.14-17.5 11.77-29.37 28.26-36.65 47.92a224.16 224.16 0 0 0 -10.61 40.6c-1.17 6.91-2.1 13.87-2.82 20.84a66.61 66.61 0 0 0 -.81 9.22c.18 4.51 3.35 7.36 6.18 10.48 63.8 70.62 154.42 113.2 248.74 122 12.26 1.15 24.55 1.69 36.86 1.72 12.05 0 12.07-18.71 0-18.73-81.58-.17-162.56-26.19-227.25-76.34a352.76 352.76 0 0 1 -48.55-45.77l2.75 6.62a263.71 263.71 0 0 1 6.7-43.05c3-12.22 6.64-24.71 13-35.66 9.11-15.79 23.92-27 40.62-33.35 38.42-14.57 81.59-10.73 122-10.72q94.84 0 189.64-4.47c38-1.8 77.68-5.61 113.77 7.57 17.11 6.25 32.33 17.73 41.79 34 6 10.38 9.26 21.71 11.64 33.42a398.38 398.38 0 0 1 7.27 51.91l2.75-6.62c-53 60.32-125.6 100.57-204.28 115.76a383.28 383.28 0 0 1 -71.86 6.73c-12 0-12.07 18.75 0 18.73z" fill="#1a1c3f"/><path d="m333.17 732.69-.17-63.69c0-6.15-.06-12.44-2.15-18.23-2.48-6.83-7.6-12.34-12.81-17.42-22.89-22.31-49.86-40-73.22-61.88s-43.66-49.34-47.35-81.1c-2.82-24.35 4.34-48.63 11.43-72.1l23.35-77.32c4.56-15.09 9.38-30.67 19.76-42.52 22.43-25.61 61.66-25.31 95.62-23 114.22 7.87 232 16.67 334.12 68.33 14.53 7.35 29.21 16.06 37.87 29.85 8.88 14.15 10.16 31.63 11 48.32a1757.46 1757.46 0 0 1 -14.95 327.43" fill="#fff"/><path d="m355.29 749.68-.2-63.74c0-6.15-.07-12.44-2.16-18.22-2.48-6.84-7.6-12.35-12.8-17.42-22.9-22.32-49.87-40.06-73.23-61.88s-43.66-49.34-47.34-81.1c-2.83-24.35 4.34-48.63 11.42-72.1l23.35-77.33c4.56-15.08 9.38-30.66 19.76-42.52 22.43-25.61 61.66-25.31 95.63-23 114.21 7.88 231.94 16.68 334.11 68.34 14.53 7.35 29.21 16.06 37.87 29.84 8.88 14.16 10.16 31.64 11 48.33a1756.46 1756.46 0 0 1 -14.95 327.42" fill="#ef6348"/><g fill="#1a1c3f"><path d="m337.67 732.69c.38-12.62.71-25.23 1.32-37.84.55-11.62 1.92-23.52 1.4-35.14-1-23.19-21.49-38.05-37.95-51.67-31.91-26.41-68.56-50.69-87.5-88.89-9.21-18.57-11.45-38.88-8-59.24 3.92-23.35 12-46.06 18.79-68.7 6.59-22 12.2-44.57 20.28-66 6.32-16.79 17.32-30.23 34.46-36.54 16.75-6.16 34.9-6.62 52.54-6 20.91.78 41.83 2.66 62.69 4.29 43.85 3.43 87.69 7.8 131 15.72 42.46 7.77 84.61 18.86 124.41 35.77 18.12 7.71 38.69 15.91 53.25 29.57 15.16 14.22 17.09 34.24 18 53.9a1742.47 1742.47 0 0 1 -10.36 290.39q-2.07 17.41-4.52 34.79c-.63 4.51 1.11 9.08 5.91 10.39 3.94 1.09 9.76-1.35 10.39-5.9a1781.28 1781.28 0 0 0 16.15-300.21c-.37-12.05-.77-24.13-1.53-36.16-.68-10.7-1.8-21.65-5.28-31.84-7-20.52-23.06-33.77-41.64-43.75-39.57-21.23-82.98-35.54-126.6-45.63-44.47-10.23-89.88-16.09-135.28-20.3-22.57-2.1-45.17-3.77-67.79-5.35-19.41-1.36-39-3.11-58.43-1.05-18.54 2-36.66 7.12-51.12 19.4-16.13 13.69-22.61 34.36-28.55 53.9q-11 36.28-22.07 72.58c-6.95 22.84-14.3 46.44-13.24 70.6 1.93 43.79 31.76 78.85 63.81 105.75 17.56 14.74 36.19 28.19 53.16 43.63 7.72 7 16.73 14.4 19.18 25 1.26 5.44 1.18 11.22 1.48 16.77l1.08 19.92c.69 12.61 1.11 25.22 1.56 37.84.21 5.78 8.83 5.81 9 0z"/><path d="m477.55 939.25c8.3-41.62 23.67-82.76 51.2-115s68.52-54.8 110.92-53.25 84.33 30.4 94.57 71.59c1 3.87 1.62 8.07.13 11.77-1.75 4.33-6 7-10.08 9.34a548.53 548.53 0 0 1 -233.41 71.41"/><path d="m482.37 940.57c6.28-20.31 12-40.62 20.91-60 8.72-19 19.81-37 34-52.31 25.92-28 62.71-48 101.58-46.41 33.2 1.33 66.38 21.44 79.91 52.06a78.35 78.35 0 0 1 3.51 10.49c.36 1.4 1.18 3.6.9 5.13 0 .08.63-.93.38-.29a22.22 22.22 0 0 1 -1.82 1.68c-8.54 6.08-18.58 10.73-27.87 15.53a530.4 530.4 0 0 1 -60 26.47 524 524 0 0 1 -71.87 20.72q-17.88 3.81-36 6.43c-12.57 1.81-25.51 2.08-37.81 5.23a10.15 10.15 0 0 0 -7.29 11.17c.8 5.32 4.81 8.28 10 8.82 12.71 1.31 25.89-1.21 38.49-3q17.67-2.45 35.16-6a580.73 580.73 0 0 0 70.45-19.24 564 564 0 0 0 67.05-27.77c10.56-5.2 21.59-10.36 31.41-16.86 4.7-3.12 8.86-6.79 11.35-11.93 3.47-7.14 2.68-15 .63-22.48-10.91-39.48-47.67-68.62-87.21-75.91-44.04-8.1-89.16 9.8-121.23 39.9-18.51 17.42-32.92 39.09-43.4 62.16-10.72 23.59-18.52 49.22-21.08 75.07-.57 5.78 8.21 6.49 9.81 1.32z"/><path d="m614.33 335.58c-16 51.24-3.12 107.49 19.65 156.1 17.85 38.12 42.46 73.52 73.82 101.77 29.29 26.38 77.82 61.78 119.6 49 21-6.41 37.09-24.7 44-45.5 16-48.08-10.49-90.39-39.91-126.13-26.74-32.47-55-64-88.28-89.8s-71.91-45.59-113.48-52"/><path d="m609.91 334.36c-20.48 60.32-2.17 125.85 26.58 180.21 26.61 50.31 67 96.7 117.34 124.38 23.76 13.05 53.17 22.27 79.86 12.66 27.54-9.92 46.08-35.19 51.7-63.4 12.72-63.87-36.65-116.55-77.11-159-43.18-45.33-92-87.13-153.74-103.88a207 207 0 0 0 -22.46-4.76c-4.67-.74-9.44 1.19-10.79 6.13-1.15 4.19 1.42 10 6.13 10.8 57.8 9.37 107 43.42 147.66 84.12 20.62 20.66 39.26 43.59 56.66 67 15.11 20.35 30 44.06 32.73 69.84 2.6 24.24-5.35 50.41-25.08 65.79-19.07 14.88-43.73 11.8-64.74 3-22.31-9.33-42.35-24.33-60.37-40.26a295.89 295.89 0 0 1 -53.94-63.86c-30.27-47.94-53-107.17-46-164.7a153.05 153.05 0 0 1 4.37-21.62c1.56-5.74-7-8-8.84-2.44z"/><path d="m390.14 686.6c-10.89-12.6-21.8-25.42-34.24-36.6s-26.83-21.16-40.82-30.35c-5.89-3.87-13.24 5.35-7.64 9.91 12.94 10.57 26.83 19.91 39.93 30.27 12.88 10.19 24.49 21.84 36.06 33.46 4.36 4.38 10.66-2.13 6.71-6.71z"/><path d="m500.7 357.52a3.8 3.8 0 0 1 -1.72-.33 3.53 3.53 0 0 0 .14.56c-.59.72-.7 4.16-1.05 5.23-.59 1.83-1.3 3.61-2 5.4l-1.07 2.85c-.27.47-.16.26.34-.63l4.53-1.22c-.69.08 1.06 2.58 2.19 2.44.12 0 1.74-2.73 1.68-2.63 1.81-2.88 2.66-5.54 1.56-8.94s-3.8-5.16-7.27-5.54c-5.94-.66-9.79 4.72-12 9.51-2.44 5.19-2.74 11.57.35 16.6a14.19 14.19 0 0 0 14.68 6.44c5.67-1.24 8.9-5.5 10.6-10.8 2.91-9 6.25-20.24-1.4-27.89-6.45-6.45-17.56-4.5-20.49 4.34-2.1 6.34 8 10.79 10.93 4.61z"/><path d="m414.6 340.89a3.84 3.84 0 0 1 -1.73-.33 3.53 3.53 0 0 0 .14.56c-.59.72-.7 4.16-1.05 5.23-.59 1.82-1.3 3.61-2 5.4l-1.07 2.85c-.27.47-.15.26.34-.63l4.53-1.22c-.69.08 1.06 2.58 2.2 2.44.11 0 1.73-2.74 1.67-2.63 1.81-2.88 2.66-5.54 1.57-8.94s-3.81-5.16-7.28-5.54c-5.93-.66-9.79 4.72-12 9.51-2.44 5.19-2.74 11.57.35 16.6a14.19 14.19 0 0 0 14.73 6.44c5.66-1.24 8.89-5.5 10.59-10.8 2.91-9 6.25-20.24-1.4-27.89-6.45-6.45-17.56-4.5-20.49 4.34-2.1 6.34 8 10.79 10.94 4.61z"/><path d="m405.82 307.74a17.32 17.32 0 0 1 17.12-.63c5.43 2.86 9.54 8.2 16.31 6.1 5.1-1.58 5.49-9.34 0-10.74-6.95-1.77-12.23-6.85-19.69-7.34a25.88 25.88 0 0 0 -18.5 6.45c-3.43 2.91 1 8.42 4.76 6.16z"/><path d="m535.14 324.38c-.2 0-2.39-3.44-2.66-3.78a35.47 35.47 0 0 0 -4.8-4.77 33.56 33.56 0 0 0 -11.36-6.3 48.17 48.17 0 0 0 -13-1.89c-5.31-.19-10.43-1.51-15.37.65-3.95 1.72-3.48 7-1.24 9.65 3.38 4.07 9 3.73 13.94 3.65s9.53-.14 14.32 1.45a39.24 39.24 0 0 1 11.33 5.9c3 2.17 6.16 3.49 9.8 2.34s3.19-7.22-.94-6.9z"/><path d="m339.76 492.48c5.95 9 16.74 10.89 26.83 11.61a231.87 231.87 0 0 0 41.49-.66c12.41-1.37 25.22-3.19 37.08-7.23 10.93-3.72 26.71-10.52 24.75-24.3-.63-4.5-6-6.15-9.7-5.51l-3 .52c-7.1 1.21-6.82 12.64 0 14.07l3 .63-5.79-7.61c0 2-7.24 5.26-9 6.13a72 72 0 0 1 -12.74 4.58 228.12 228.12 0 0 1 -30.2 6 237.15 237.15 0 0 1 -31.05 2.13c-8.1 0-19 1.3-24.72-5.7-3.16-3.87-9.68 1.19-6.94 5.36z"/><path d="m222.1 370.2c47.72-2.87 92.47-35 110.51-79.23.89-2.2 1.67-4.89.24-6.78-1.18-1.57-3.37-1.88-5.33-2.06-20.5-1.9-43.23-3.19-59.44 9.5-6.86 5.36-11.81 12.75-16.33 20.2a307.25 307.25 0 0 0 -22.85 46"/><path d="m221 374.38c19.44 3.08 40.7-4.31 57.7-13.27a141.71 141.71 0 0 0 46.17-39.29 124.65 124.65 0 0 0 15.26-25.65c2.33-5.33 4-11.19.65-16.59-3.61-5.81-10.15-6.37-16.3-7-21.53-2.28-45.31-1.68-62.94 12.47-10.24 8.22-17 20.34-23.31 31.64a333.29 333.29 0 0 0 -18.23 38.71c-1.86 4.65 2 10.18 6.48 11.41 5.28 1.45 9.53-1.81 11.4-6.48 7.36-18.4 16.31-38 28.52-53.73 11.24-14.49 28.22-16.85 45.51-16.22 4.19.15 8.37.48 12.56.76a13 13 0 0 0 3.09.22q-2.42-.93-3.07-4.15c-1.1 1-1.73 4.49-2.42 6a125.12 125.12 0 0 1 -12.54 21.34 121.71 121.71 0 0 1 -35.81 32.24 142.74 142.74 0 0 1 -24.72 11.59c-9.15 3.33-18.7 4.89-28 7.67-3.78 1.13-4.47 7.65 0 8.36z"/></g><g fill="#eab642"><path d="m467.52 410.35a157.14 157.14 0 0 1 27.91-5.74c4.34-.46 8.71-.73 13.07-.83 4.79-.11 10.16.9 14.72-.68 5.82-2 5.5-9.4 0-11.54-4.49-1.74-10-.68-14.72-.23-4.89.46-9.77 1.12-14.6 2a163.25 163.25 0 0 0 -28.86 8c-5.51 2.08-3.38 10.73 2.48 9z"/><path d="m372.17 374.48a142.53 142.53 0 0 1 18.75 4.84 19.63 19.63 0 0 1 7.45 4.22c2.42 2.2 4.24 4.41 7.61 5 4.76.83 9.35-3.88 6.56-8.55-3.26-5.46-10.93-9.44-17-10.86a86.72 86.72 0 0 0 -22.44-1.88c-4 .11-5.21 6.42-1 7.22z"/><path d="m553.48 451.08v-.66a4 4 0 0 0 -.48-2.11 4.87 4.87 0 0 0 -2.9-2.9 4.12 4.12 0 0 0 -2.11-.47l-1.46.19a5.5 5.5 0 0 0 -2.42 1.41l-.86 1.11a5.61 5.61 0 0 0 -.75 2.77v.66a5.64 5.64 0 0 0 5.49 5.48l1.46-.19a5.44 5.44 0 0 0 2.42-1.41l.86-1.11a5.61 5.61 0 0 0 .75-2.77z"/><path d="m570.75 443.5-1.24 2.65a4.92 4.92 0 0 0 -.46 3.53 4.58 4.58 0 0 0 8.37 1.1l1.38-2.58a4.84 4.84 0 0 0 .47-3.59 4.66 4.66 0 0 0 -5.73-3.26 4.56 4.56 0 0 0 -2.79 2.15z"/><path d="m567.59 478.78c7.91 0 7.92-12.29 0-12.29s-7.92 12.29 0 12.29z"/><path d="m420.66 766.25c14.11-15.62 31-27.85 49.77-37.37 5.24-2.66.65-10.09-4.54-7.77-19.84 8.89-37.26 22.48-51.59 38.78-3.8 4.33 2.47 10.68 6.36 6.36z"/><path d="m443.27 795.8c11.75-10 23.61-19.58 37-27.36 5.92-3.44.56-12.65-5.37-9.19-14 8.13-27.21 18.15-37.28 30.89-3.17 4 1.67 9.06 5.67 5.66z"/></g></svg>
