<?xml version="1.0" encoding="UTF-8"?>
<svg id="Capa_2" data-name="Capa 2" xmlns="http://www.w3.org/2000/svg" viewBox="0 0 500 124.65">
  <g id="Capa_1-2" data-name="Capa 1">
    <g>
      <g>
        <path fill="#E8EDFF" d="M0,69.93V1.14C0,.38.47,0,1.14,0h10.52c.66,0,1.14.38,1.14,1.14v32.79l18.57-12.7c2.65-1.8,5.4-3.6,7.87-5.4.57-.38,1.33-.19,1.61.29l5.02,8.15c.38.66.09,1.33-.28,1.61-2.56,1.8-5.12,3.7-7.49,5.31l-10.52,7.3,8.15,16.39c2.37,4.83,4.93,9.95,7.2,14.59.38.76-.19,1.61-1.04,1.61h-11.09c-.95,0-1.52-.57-1.89-1.33-2.08-4.26-4.26-8.62-6.35-12.89l-5.5-11.09-4.26,2.84v21.32c0,.76-.47,1.14-1.14,1.14H1.14c-.66,0-1.14-.38-1.14-1.14Z"/>
        <path fill="#E8EDFF" d="M44.64,43.4c0-15.73,13.17-28.62,28.9-28.62,5.12,0,11.09,1.42,16.49,5.21v-2.94c0-.66.47-1.14,1.14-1.14h10.52c.66,0,1.14.47,1.14,1.14v52.88c0,.66-.47,1.14-1.14,1.14h-10.52c-.66,0-1.14-.47-1.14-1.14v-2.84c-5.5,3.88-11.37,5.21-16.49,5.21-15.73,0-28.9-12.98-28.9-28.9ZM89.65,43.5v-.1c0-8.91-7.11-16.77-16.11-16.77s-16.11,7.86-16.11,16.77,7.01,17.06,16.11,17.06,16.11-7.86,16.11-16.96Z"/>
        <path fill="#E8EDFF" d="M112.78,50.79v-23.03h-6.44c-.66,0-1.14-.47-1.14-1.14v-9.57c0-.66.47-1.14,1.14-1.14h6.44V5.5c0-.85.57-1.42,1.23-1.52,3.13-.47,7.11-1.14,9.95-1.61,1.23-.19,1.61.47,1.61,1.14v12.41h14.69c.66,0,1.14.47,1.14,1.14v9.57c0,.66-.47,1.14-1.14,1.14h-14.69v22.46c0,6.63,4.45,10.14,10.71,10.14,1.42,0,3.03-.19,4.26-.47.76-.19,1.23.1,1.42.66l2.18,9c.09.47-.1,1.04-.66,1.23-2.75.95-5.87,1.23-8.43,1.23-14.5,0-22.27-10.04-22.27-21.23Z"/>
        <path fill="#E8EDFF" d="M141.78,43.4c0-15.73,13.17-28.62,28.9-28.62s29,12.89,29,28.62c0,3.32-1.14,5.97-3.89,5.97h-40.08c2.18,6.54,7.96,11.09,15.07,11.09,6.06,0,10.52-2.56,13.93-6.73.38-.47,1.04-.66,1.71-.19l7.58,5.87c.76.57.57,1.23.28,1.61-5.78,7.11-14.02,11.28-23.6,11.28-15.73,0-28.9-12.98-28.9-28.9ZM155.71,37.53h30.23c-2.37-6.35-8.34-10.9-15.26-10.9s-12.79,4.36-14.97,10.9Z"/>
        <path fill="#E8EDFF" d="M203,50.04c0-8.72,5.21-16.3,12.7-20-1.7-2.84-2.56-6.16-2.56-9.29,0-10.23,8.62-18.67,19.24-18.67s19.24,8.43,19.24,18.67c0,8.43-5.69,15.54-13.55,17.91l7.49,9.67,2.37-1.8c2.37-1.71,4.83-3.7,7.3-5.59.38-.29,1.14-.29,1.52.19l6.16,7.87c.28.38.28,1.14-.19,1.52-2.46,1.89-4.83,3.79-7.39,5.68l-2.37,1.8,1.23,1.52c2.56,3.32,5.12,6.73,7.68,10.04.47.66,0,1.52-.76,1.52h-12.79c-.85,0-1.42-.47-1.99-1.23-1.04-1.42-2.18-2.84-3.22-4.17l-2.75,2.08c-4.55,3.51-9.95,4.74-14.22,4.74-12.79,0-23.12-10.04-23.12-22.46ZM226.02,60.55c2.75,0,4.93-.95,6.92-2.56l2.65-1.99-12.41-16.11c-4.26,1.33-7.3,5.21-7.3,10.14,0,5.87,4.55,10.52,10.14,10.52ZM228.77,26.72l.66.85h1.61c5.12,0,7.68-3.22,7.68-6.82s-2.84-6.73-6.35-6.73-6.35,2.94-6.35,6.44c0,2.37.95,3.88,2.75,6.25Z"/>
        <path fill="#E8EDFF" d="M266.4,43.4c0-15.73,13.17-28.62,29.09-28.62,5.02,0,10.9,1.52,16.3,5.4V1.14c0-.66.47-1.14,1.14-1.14h10.52c.66,0,1.14.47,1.14,1.14v68.8c0,.66-.47,1.14-1.14,1.14h-10.52c-.66,0-1.14-.47-1.14-1.14v-3.03c-5.5,3.98-11.37,5.4-16.3,5.4-15.92,0-29.09-12.98-29.09-28.9ZM311.79,43.4v-.1c0-8.81-7.3-16.68-16.3-16.68s-16.3,7.86-16.3,16.77,7.2,17.06,16.3,17.06,16.3-7.86,16.3-17.06Z"/>
        <path fill="#E8EDFF" d="M329.8,43.4c0-15.73,13.08-28.62,28.9-28.62s28.9,12.89,28.9,28.62-13.08,28.9-28.9,28.9-28.9-12.98-28.9-28.9ZM374.81,43.4c0-8.91-7.01-16.77-16.11-16.77s-16.11,7.86-16.11,16.77v.1c0,9.1,7.11,16.96,16.11,16.96s16.11-7.86,16.11-17.06Z"/>
        <path fill="#E8EDFF" d="M391.87,47.67v-30.61c0-.76.47-1.14,1.14-1.14h10.52c.66,0,1.14.38,1.14,1.14v30.99c0,8.15,5.02,12.51,12.32,12.51s12.32-4.36,12.32-12.51v-30.99c0-.76.47-1.14,1.14-1.14h10.52c.66,0,1.14.38,1.14,1.14v30.7c0,13.65-8.53,24.54-25.11,24.54s-25.11-10.9-25.11-24.64Z"/>
        <path fill="#E8EDFF" d="M451.2,80.45c-.57-.38-.47-1.23-.19-1.7l4.45-7.3c.19-.28.85-.76,1.61-.28,3.98,2.56,9.1,4.07,14.03,4.07,7.67,0,14.02-3.89,15.26-11.75-3.13,2.75-7.68,4.36-13.17,4.36-14.59,0-26.82-11.94-26.82-26.72s12.22-26.34,26.82-26.34c4.74,0,9.66,1.42,14.02,4.26v-1.99c0-.66.47-1.14,1.14-1.14h10.52c.66,0,1.14.47,1.14,1.14v41.89c0,16.01-11.56,27.48-27.39,27.48-8.24,0-15.07-1.9-21.42-5.97ZM487.21,41.32v-.1c0-7.68-6.25-14.59-14.02-14.59s-14.03,6.92-14.03,14.59,6.06,14.78,14.12,14.78,13.93-6.92,13.93-14.69Z"/>
      </g>
      <g>
        DFF" d="M2<path fill="#E8EDFF" d="M215.88,108.77v-6.32c0-.44.31-.75.75-.75h4.25v-11.13c0-7.38,5.13-14.01,14.7-14.01,1.69,0,3.75.19,5.57.81.38.13.5.5.44.81l-1.44,5.94c-.12.37-.44.56-.94.44-.81-.19-1.88-.31-2.81-.31-4.13,0-7.07,2.32-7.07,6.69v10.76h9.69c.44,0,.75.31.75.75v6.32c0,.44-.31.75-.75.75h-9.69v13.57c0,.5-.31.75-.75.75h-6.94c-.44,0-.75-.25-.75-.75v-13.57h-4.25c-.44,0-.75-.31-.75-.75Z"/>
        <path fill="#E8EDFF" d="M241.71,105.58c0-10.38,8.63-18.89,19.07-18.89s19.07,8.51,19.07,18.89-8.63,19.07-19.07,19.07-19.07-8.57-19.07-19.07ZM271.41,105.58c0-5.88-4.63-11.07-10.63-11.07s-10.63,5.19-10.63,11.07v.06c0,6,4.69,11.19,10.63,11.19s10.63-5.19,10.63-11.26Z"/>
        <path fill="#E8EDFF" d="M284.23,123.09v-34.89c0-.44.31-.75.75-.75h6.32c.44,0,.75.31.75.75v1.69c2.44-2,5.81-2.88,8.19-2.88,2.25,0,3.88.25,5.25.75.5.19.5.56.44.88l-1.44,5.75c-.13.5-.5.69-.88.62-.88-.25-2.06-.31-2.88-.31-4.06,0-8.07,2.44-8.07,9.26v19.13c0,.5-.31.75-.75.75h-6.94c-.44,0-.75-.25-.75-.75Z"/>
        <path fill="#E8EDFF" d="M335.51,123.09l-12.7-25.64c-1.5-3.06-3.06-6.13-4.56-9.19-.19-.37,0-.81.44-.81h7.88c.5,0,.88.38,1,.69,1.38,2.75,2.81,5.69,4.25,8.63l5.19,10.63,5.25-10.69c1.38-2.75,2.81-5.69,4.25-8.63.19-.38.5-.63.88-.63h7.82c.56,0,.56.56.44.81-1.56,3.13-3.31,6.69-4.94,9.94l-12.32,24.89c-.44.88-.81,1.13-1.44,1.13-.56,0-1.06-.31-1.44-1.13Z"/>
        <path fill="#E8EDFF" d="M353.52,105.58c0-10.38,8.69-18.89,19.07-18.89s19.13,8.51,19.13,18.89c0,2.19-.75,3.94-2.56,3.94h-26.45c1.44,4.31,5.25,7.32,9.94,7.32,4,0,6.94-1.69,9.19-4.44.25-.31.69-.44,1.12-.13l5,3.88c.5.37.38.81.19,1.06-3.81,4.69-9.26,7.44-15.57,7.44-10.38,0-19.07-8.57-19.07-19.07ZM362.71,101.7h19.95c-1.56-4.19-5.5-7.19-10.07-7.19s-8.44,2.88-9.88,7.19Z"/>
        <path fill="#E8EDFF" d="M397.98,110.45v-15.2h-4.25c-.44,0-.75-.31-.75-.75v-6.32c0-.44.31-.75.75-.75h4.25v-6.88c0-.56.38-.94.81-1,2.06-.31,4.69-.75,6.57-1.06.81-.13,1.06.31,1.06.75v8.19h9.69c.44,0,.75.31.75.75v6.32c0,.44-.31.75-.75.75h-9.69v14.82c0,4.38,2.94,6.69,7.07,6.69.94,0,2-.13,2.81-.31.5-.13.81.06.94.44l1.44,5.94c.06.31-.06.69-.44.81-1.81.62-3.88.81-5.57.81-9.57,0-14.7-6.63-14.7-14.01Z"/>
        <path fill="#E8EDFF" d="M419.56,118.58c-.25-.25-.38-.63,0-1.13l3.75-4.44c.38-.44.81-.5,1.19-.19,3.31,2.69,6.44,4.13,11.01,4.13,3.81,0,6.25-1.44,6.25-3.25,0-5.57-21.39-2.94-21.39-16.13,0-6.88,6.5-10.88,14.32-10.88,6.57,0,11.19,2.56,14.45,5.44.31.31.37.69.06,1.06l-3.94,4.57c-.31.31-.75.31-1.06.06-2.44-1.94-5.31-3.56-9.57-3.56-3.63,0-5.82,1.19-5.82,2.69,0,5.25,21.64,3.19,21.64,15.57,0,6.75-5.82,12.13-15.01,12.13-6.75,0-11.82-2.19-15.88-6.07Z"/>
      </g>
    </g>
  </g>
</svg>